<svg aria-hidden="true" style="position: absolute; width: 0; height: 0; overflow: hidden;" version="1.1" xmlns="http://www.w3.org/2000/svg" xmlns:xlink="http://www.w3.org/1999/xlink">
<defs>
<symbol id="icon-ukraine" viewBox="0 0 32 32">
<path fill="#ffda44" style="fill: var(--color1, #ffda44)" d="M16 32c8.837 0 16-7.163 16-16s-7.163-16-16-16c-8.837 0-16 7.163-16 16s7.163 16 16 16z"></path>
<path fill="#338af3" style="fill: var(--color2, #338af3)" d="M0 16c0-8.836 7.163-16 16-16s16 7.163 16 16z"></path>
</symbol>
<symbol id="icon-book" viewBox="0 0 32 32">
<path stroke-linejoin="round" stroke-linecap="round" stroke-miterlimit="4" stroke-width="3" d="M29.333 8.267c0-1.493 0-2.24-0.291-2.811-0.256-0.502-0.664-0.91-1.165-1.165-0.571-0.291-1.317-0.291-2.811-0.291h-0.533c-2.987 0-4.48 0-5.621 0.581-1.004 0.511-1.819 1.327-2.331 2.331-0.581 1.141-0.581 2.634-0.581 5.621v15.467l0.133-0.2c0.926-1.389 1.389-2.084 2.001-2.587 0.542-0.445 1.166-0.779 1.837-0.983 0.758-0.23 1.593-0.23 3.262-0.23h1.833c1.494 0 2.24 0 2.811-0.291 0.502-0.256 0.91-0.664 1.165-1.165 0.291-0.57 0.291-1.317 0.291-2.811v-11.467z"></path>
<path stroke-linejoin="round" stroke-linecap="round" stroke-miterlimit="4" stroke-width="3" d="M2.667 8.267c0-1.493 0-2.24 0.291-2.811 0.256-0.502 0.664-0.91 1.165-1.165 0.57-0.291 1.317-0.291 2.811-0.291h0.533c2.987 0 4.48 0 5.621 0.581 1.004 0.511 1.819 1.327 2.331 2.331 0.581 1.141 0.581 2.634 0.581 5.621v15.467l-0.133-0.2c-0.926-1.389-1.389-2.084-2.001-2.587-0.542-0.445-1.166-0.779-1.837-0.983-0.758-0.23-1.593-0.23-3.262-0.23h-1.833c-1.493 0-2.24 0-2.811-0.291-0.502-0.256-0.91-0.664-1.165-1.165-0.291-0.57-0.291-1.317-0.291-2.811v-11.467z"></path>
</symbol>
<symbol id="icon-close" viewBox="0 0 32 32">
<path stroke-linejoin="round" stroke-linecap="round" stroke-miterlimit="4" stroke-width="2.5" d="M24 8l-16 16"></path>
<path stroke-linejoin="round" stroke-linecap="round" stroke-miterlimit="4" stroke-width="2.5" d="M8 8l16 16"></path>
</symbol>
<symbol id="icon-eye" viewBox="0 0 32 32">
<path stroke-linejoin="round" stroke-linecap="round" stroke-miterlimit="4" stroke-width="3.2" d="M23.92 23.92c-2.279 1.737-5.055 2.7-7.92 2.747-9.333 0-14.667-10.667-14.667-10.667 1.659-3.091 3.959-5.791 6.747-7.92M13.2 5.653c0.918-0.215 1.857-0.322 2.8-0.32 9.333 0 14.667 10.667 14.667 10.667-0.809 1.514-1.775 2.94-2.88 4.253M18.827 18.827c-0.366 0.393-0.808 0.708-1.299 0.927s-1.020 0.336-1.557 0.346c-0.537 0.009-1.071-0.089-1.569-0.291s-0.95-0.5-1.33-0.88c-0.38-0.38-0.679-0.832-0.88-1.33s-0.3-1.032-0.29-1.569c0.009-0.537 0.127-1.067 0.346-1.557s0.534-0.932 0.927-1.298"></path>
</symbol>
<symbol id="icon-heart" viewBox="0 0 32 32">
<path stroke-linejoin="round" stroke-linecap="round" stroke-miterlimit="4" stroke-width="2.4615" d="M27.787 6.147c-0.681-0.681-1.49-1.222-2.38-1.591s-1.844-0.559-2.807-0.559c-0.963 0-1.917 0.19-2.807 0.559s-1.698 0.909-2.38 1.591l-1.413 1.413-1.413-1.413c-1.376-1.376-3.241-2.148-5.187-2.148s-3.811 0.773-5.187 2.148c-1.376 1.376-2.148 3.241-2.148 5.187s0.773 3.811 2.148 5.187l11.787 11.787 11.787-11.787c0.681-0.681 1.222-1.49 1.591-2.379s0.559-1.844 0.559-2.807-0.19-1.917-0.559-2.807c-0.369-0.89-0.909-1.699-1.591-2.38z"></path>
</symbol>
<symbol id="icon-log-in" viewBox="0 0 32 32">
<path fill="none" stroke="#f4c550" style="stroke: var(--color3, #f4c550)" stroke-linejoin="round" stroke-linecap="round" stroke-miterlimit="4" stroke-width="3.2" d="M20 4h1.6c2.24 0 3.36 0 4.216 0.436 0.753 0.383 1.364 0.995 1.748 1.748 0.436 0.856 0.436 1.976 0.436 4.216v11.2c0 2.24 0 3.36-0.436 4.216-0.384 0.753-0.995 1.364-1.748 1.748-0.856 0.436-1.976 0.436-4.216 0.436h-1.6"></path>
<path fill="none" stroke="#f4c550" style="stroke: var(--color3, #f4c550)" stroke-linejoin="round" stroke-linecap="round" stroke-miterlimit="4" stroke-width="3.2" d="M13.333 9.333l6.667 6.667M20 16l-6.667 6.667M20 16h-16"></path>
</symbol>
<symbol id="icon-online" viewBox="0 0 32 32">
<path fill="#fff" style="fill: var(--color4, #fff)" d="M32 16c0 8.837-7.163 16-16 16s-16-7.163-16-16c0-8.837 7.163-16 16-16s16 7.163 16 16z"></path>
<path fill="#38cd3e" style="fill: var(--color5, #38cd3e)" d="M26.667 16c0 5.891-4.776 10.667-10.667 10.667s-10.667-4.776-10.667-10.667c0-5.891 4.776-10.667 10.667-10.667s10.667 4.776 10.667 10.667z"></path>
</symbol>
<symbol id="icon-radio" viewBox="0 0 32 32">
<path fill="none" stroke="#f4c550" style="stroke: var(--color3, #f4c550)" stroke-linejoin="miter" stroke-linecap="butt" stroke-miterlimit="4" stroke-width="3.2" d="M16 1.6c7.953 0 14.4 6.447 14.4 14.4s-6.447 14.4-14.4 14.4c-7.953 0-14.4-6.447-14.4-14.4s6.447-14.4 14.4-14.4z"></path>
<path fill="#f4c550" style="fill: var(--color3, #f4c550)" d="M16 8c4.418 0 8 3.582 8 8s-3.582 8-8 8c-4.418 0-8-3.582-8-8s3.582-8 8-8z"></path>
</symbol>
<symbol id="icon-eye-slash" viewBox="0 0 32 32">
<path stroke-linejoin="round" stroke-linecap="round" stroke-miterlimit="4" stroke-width="3.2" d="M23.92 23.92c-2.279 1.737-5.055 2.7-7.92 2.747-9.333 0-14.667-10.667-14.667-10.667 1.659-3.091 3.959-5.791 6.747-7.92M13.2 5.653c0.918-0.215 1.857-0.322 2.8-0.32 9.333 0 14.667 10.667 14.667 10.667-0.809 1.514-1.775 2.94-2.88 4.253M18.827 18.827c-0.366 0.393-0.808 0.708-1.299 0.927s-1.020 0.336-1.557 0.346c-0.537 0.009-1.071-0.089-1.569-0.291s-0.95-0.5-1.33-0.88c-0.38-0.38-0.679-0.832-0.88-1.33s-0.3-1.032-0.29-1.569c0.009-0.537 0.127-1.067 0.346-1.557s0.534-0.932 0.927-1.298"></path>
<path stroke-linejoin="round" stroke-linecap="round" stroke-miterlimit="4" stroke-width="3.2" d="M1.333 1.333l29.333 29.333"></path>
</symbol>
<symbol id="icon-star" viewBox="0 0 32 32">
<path fill="#ffc531" style="fill: var(--color6, #ffc531); stroke: var(--color6, #ffc531)" stroke="#ffc531" stroke-linejoin="miter" stroke-linecap="butt" stroke-miterlimit="4" stroke-width="2.4" d="M19.6 10.395c0.318 0.603 0.898 1.024 1.57 1.141l7.6 1.313-5.375 5.535c-0.416 0.428-0.637 1.003-0.621 1.592l0.022 0.254 1.098 7.635-6.922-3.402-0.234-0.1c-0.476-0.169-0.996-0.169-1.473 0l-0.234 0.1-6.924 3.402 1.1-7.635c0.085-0.591-0.074-1.187-0.434-1.654l-0.166-0.191-5.377-5.535 7.602-1.313c0.588-0.102 1.106-0.437 1.439-0.924l0.131-0.217 3.6-6.822 3.6 6.822z"></path>
</symbol>
<symbol id="icon-mac" viewBox="0 0 361 176">
<path d="M7.05786 0C3.51331 0 0.640015 2.87903 0.640015 6.43046V240.821C0.640015 244.372 3.51331 247.251 7.05786 247.251H353.942C357.487 247.251 360.36 244.372 360.36 240.821V6.43046C360.36 2.87903 357.487 0 353.942 0H7.05786Z" fill="url(#paint0_linear_17961_52)"/>
<path d="M192.091 66.3851C192.091 69.1751 191.092 71.78 189.101 74.1909C186.698 77.0572 183.792 78.7134 180.641 78.4521C180.601 78.1175 180.577 77.7652 180.577 77.3949C180.577 74.7168 181.72 71.8504 183.749 69.5069C184.762 68.3203 186.05 67.3338 187.613 66.5467C189.172 65.7713 190.646 65.3425 192.033 65.2692C192.051 65.4351 192.065 65.6009 192.074 65.7664C192.085 65.9733 192.091 66.1797 192.091 66.3851Z" fill="url(#paint1_linear_17961_52)"/>
<path d="M202.639 108.742C201.812 110.691 200.834 112.485 199.7 114.134C198.155 116.383 196.889 117.939 195.914 118.803C194.402 120.222 192.782 120.949 191.048 120.99C189.803 120.99 188.301 120.628 186.553 119.895C184.799 119.165 183.188 118.803 181.714 118.803C180.169 118.803 178.511 119.165 176.738 119.895C174.962 120.628 173.532 121.011 172.438 121.049C170.775 121.121 169.117 120.374 167.462 118.803C166.406 117.863 165.085 116.252 163.502 113.969C161.804 111.531 160.408 108.704 159.315 105.481C158.143 102 157.556 98.6288 157.556 95.3651C157.556 91.6267 158.348 88.4023 159.934 85.7004C161.18 83.5299 162.838 81.818 164.913 80.5612C166.988 79.3043 169.23 78.6639 171.644 78.6229C172.965 78.6229 174.698 79.0399 176.85 79.8593C178.997 80.6816 180.376 81.0985 180.98 81.0985C181.432 81.0985 182.963 80.6111 185.559 79.6389C188.014 78.7376 190.086 78.3643 191.783 78.5113C196.383 78.89 199.838 80.7401 202.136 84.0735C198.023 86.6167 195.988 90.1788 196.029 94.7484C196.066 98.3079 197.331 101.27 199.818 103.622C200.945 104.713 202.204 105.557 203.604 106.156C203.301 107.055 202.98 107.916 202.639 108.742Z" fill="url(#paint2_linear_17961_52)"/>
<linearGradient id="paint0_linear_17961_52" x1="180.5" y1="0" x2="180.5" y2="247.251" gradientUnits="userSpaceOnUse">
<stop stop-color="#295761"/>
<stop offset="1" stop-color="#183E49"/>
</linearGradient>
<linearGradient id="paint1_linear_17961_52" x1="180.58" y1="65.2692" x2="180.58" y2="121.053" gradientUnits="userSpaceOnUse">
<stop stop-color="#CBDED3"/>
<stop offset="1" stop-color="#9EB9AD"/>
</linearGradient>
<linearGradient id="paint2_linear_17961_52" x1="180.58" y1="65.2692" x2="180.58" y2="121.053" gradientUnits="userSpaceOnUse">
<stop stop-color="#CBDED3"/>
<stop offset="1" stop-color="#9EB9AD"/>
</linearGradient>
</symbol>
</defs>
</svg>
